<svg width="33" height="17" viewBox="0 0 33 17" fill="none" xmlns="http://www.w3.org/2000/svg">
<mask id="path-1-inside-1" fill="white">
<path fill-rule="evenodd" clip-rule="evenodd" d="M27.0611 0L16.3089 11.174L5.55674 0H0L16.055 16.761L32.1099 0H27.0611Z"/>
</mask>
<path d="M16.3089 11.174L15.7685 11.694L16.3089 12.2557L16.8493 11.694L16.3089 11.174ZM27.0611 0V-0.75H26.742L26.5207 -0.520031L27.0611 0ZM5.55674 0L6.09717 -0.520031L5.87588 -0.75H5.55674V0ZM0 0V-0.75H-1.75697L-0.541615 0.5188L0 0ZM16.055 16.761L15.5133 17.2798L16.055 17.8452L16.5966 17.2798L16.055 16.761ZM32.1099 0L32.6515 0.5188L33.8669 -0.75H32.1099V0ZM16.8493 11.694L27.6015 0.520031L26.5207 -0.520031L15.7685 10.654L16.8493 11.694ZM5.0163 0.520031L15.7685 11.694L16.8493 10.654L6.09717 -0.520031L5.0163 0.520031ZM5.55674 -0.75H0V0.75H5.55674V-0.75ZM-0.541615 0.5188L15.5133 17.2798L16.5966 16.2422L0.541615 -0.5188L-0.541615 0.5188ZM16.5966 17.2798L32.6515 0.5188L31.5683 -0.5188L15.5133 16.2422L16.5966 17.2798ZM32.1099 -0.75H27.0611V0.75H32.1099V-0.75Z" fill="black" mask="url(#path-1-inside-1)"/>
</svg>
