<?xml version="1.0" encoding="utf-8"?>
<!-- Generator: Adobe Illustrator 24.0.0, SVG Export Plug-In . SVG Version: 6.00 Build 0)  -->
<svg version="1.1" id="Layer_1" xmlns="http://www.w3.org/2000/svg" xmlns:xlink="http://www.w3.org/1999/xlink" x="0px" y="0px"
	 viewBox="0 0 33 17" style="enable-background:new 0 0 33 17;" xml:space="preserve">
<style type="text/css">
	.st0{display:none;}
	.st1{display:inline;fill-rule:evenodd;clip-rule:evenodd;fill:#FFFFFF;}
	.st2{display:inline;fill-rule:evenodd;clip-rule:evenodd;fill:#FFFFFF;filter:url(#Adobe_OpacityMaskFilter);}
	.st3{display:inline;mask:url(#path-1-inside-1_1_);}
	.st4{opacity:0.5;fill:#F2994A;stroke:#231F20;stroke-width:0.75;stroke-miterlimit:10;}
	.st5{fill:none;stroke:#231F20;stroke-width:0.75;stroke-miterlimit:10;}
</style>
<g class="st0">
	<path class="st1" d="M27.5,0L16.7,11.1L6,0H0.4l16.1,16.8L32.5,0H27.5z"/>
	<defs>
		<filter id="Adobe_OpacityMaskFilter" filterUnits="userSpaceOnUse" x="-1.3" y="-0.8" width="35.6" height="18.6">
			<feColorMatrix  type="matrix" values="1 0 0 0 0  0 1 0 0 0  0 0 1 0 0  0 0 0 1 0"/>
		</filter>
	</defs>
	<mask maskUnits="userSpaceOnUse" x="-1.3" y="-0.8" width="35.6" height="18.6" id="path-1-inside-1_1_" style="display:inline;">
		<path style="fill-rule:evenodd;clip-rule:evenodd;fill:#FFFFFF;filter:url(#Adobe_OpacityMaskFilter);" d="M27.5,0L16.7,11.1L6,0
			H0.4l16.1,16.8L32.5,0H27.5z"/>
	</mask>
	<path class="st3" d="M16.7,11.1l-0.5,0.5l0.5,0.6l0.5-0.6L16.7,11.1z M27.5,0v-0.8h-0.3l-0.2,0.2L27.5,0z M6,0l0.5-0.5L6.3-0.8H6V0
		z M0.4,0v-0.8h-1.8l1.2,1.3L0.4,0z M16.5,16.7l-0.5,0.5l0.5,0.6l0.5-0.6L16.5,16.7z M32.5,0l0.5,0.5l1.2-1.3h-1.8V0z M17.3,11.6
		L28,0.5l-1.1-1L16.2,10.6L17.3,11.6z M5.4,0.5l10.8,11.2l1.1-1L6.5-0.6L5.4,0.5z M6-0.8H0.4v1.5H6V-0.8z M-0.1,0.5l16.1,16.8l1.1-1
		L1-0.6L-0.1,0.5z M17,17.2L33.1,0.5l-1.1-1L15.9,16.2L17,17.2z M32.5-0.8h-5v1.5h5V-0.8z"/>
</g>
<polygon class="st4" points="31.2,0.3 16,16.2 0.9,0.3 5.3,0.3 5.4,0.3 16.3,11.7 27.2,0.3 "/>
<polygon class="st5" points="31.2,0.3 16,16.2 0.9,0.3 5.3,0.3 5.4,0.3 16.3,11.7 27.2,0.3 "/>
</svg>
