<?xml version="1.0" encoding="utf-8"?>
<!-- Generator: Adobe Illustrator 24.0.0, SVG Export Plug-In . SVG Version: 6.00 Build 0)  -->
<svg version="1.1" id="Capa_1" xmlns="http://www.w3.org/2000/svg" xmlns:xlink="http://www.w3.org/1999/xlink" x="0px" y="0px"
	 viewBox="0 0 438.5 438.5" style="enable-background:new 0 0 438.5 438.5;" xml:space="preserve">
<style type="text/css">
	.st0{fill:none;stroke:#000000;stroke-width:16;stroke-miterlimit:10;}
</style>
<g>
	<path class="st0" d="M401,119c-18.8-32.2-44.2-57.6-76.4-76.4s-67.2-28.1-105.3-28.1s-73.2,9.4-105.4,28.1S56.3,86.8,37.6,119
		S9.4,186.3,9.4,224.3c0,45.8,13.3,86.8,40,123.4s61.2,61.8,103.5,75.8c4.9,1,8.5,0.3,10.9-1.9s3.5-4.9,3.5-8.2
		c0-0.6,0-5.5-0.1-14.7c-0.1-9.3-0.1-17.4-0.1-24.3l-6.3,1.1c-4,0.8-9.1,1.1-15.1,1c-6.1-0.1-12.4-0.8-19-1.9
		c-6.6-1.1-12.6-3.9-18.3-8.2c-5.6-4.3-9.7-9.9-12.1-16.8l-2.8-6.3c-1.8-4.2-4.7-8.8-8.6-14c-3.9-5.1-7.8-8.5-11.9-10.3l-1.9-1.3
		c-1.2-1-2.5-2-3.5-3.3c-1.1-1.2-1.9-2.6-2.5-3.8c-0.6-1.2-0.1-2.3,1.3-3.2c1.4-0.9,4.1-1.1,7.9-1.1l5.5,0.9
		c3.6,0.8,8.1,2.9,13.5,6.6c5.4,3.6,9.8,8.4,13.2,14.2c4.2,7.5,9.3,13.2,15.1,17c5.9,3.9,11.9,5.8,17.9,5.8s11.2-0.5,15.6-1.3
		c4.4-1,8.4-2.3,12.3-4.1c1.6-12.3,6.1-21.6,13.4-28.1c-10.3-1.1-19.7-2.8-28-4.9c-8.3-2.2-16.8-5.7-25.7-10.6
		c-8.8-4.9-16.2-11-22-18.3c-5.8-7.3-10.6-16.8-14.4-28.7s-5.6-25.5-5.6-41c0-22,7.2-40.8,21.6-56.3c-6.7-16.6-6.1-35.1,1.9-55.7
		c5.3-1.6,13.1-0.4,23.5,3.7c10.4,4.1,18,7.7,22.8,10.5s8.7,5.4,11.6,7.4c16.9-4.7,34.5-7.1,52.5-7.1s35.5,2.4,52.5,7.1l10.3-6.5
		c7.1-4.4,15.5-8.4,25.2-12.1c9.7-3.6,17-4.7,22.1-3c8.2,20.6,8.9,39.2,2.2,55.7c14.4,15.5,21.6,34.3,21.6,56.3
		c0,15.5-1.9,29.2-5.6,41.2c-3.7,12-8.5,21.5-14.5,28.7c-5.9,7.2-13.3,13.3-22.1,18.2c-8.8,4.9-17.4,8.5-25.7,10.6
		c-8.3,2.2-17.6,3.8-28,4.9c9.5,8.2,14.2,21.2,14.2,38.8v57.6c0,3.3,1.1,6,3.4,8.2c2.3,2.2,5.8,2.9,10.8,1.9
		c42.3-14.1,76.8-39.3,103.5-75.8c26.7-36.6,40-77.6,40-123.4C429.2,186.3,419.8,151.1,401,119z"/>
</g>
</svg>
