<?xml version="1.0" encoding="utf-8"?>
<!-- Generator: Adobe Illustrator 24.0.0, SVG Export Plug-In . SVG Version: 6.00 Build 0)  -->
<svg version="1.1" id="Layer_1" xmlns="http://www.w3.org/2000/svg" xmlns:xlink="http://www.w3.org/1999/xlink" x="0px" y="0px"
	 viewBox="0 0 20 20" style="enable-background:new 0 0 20 20;" xml:space="preserve">
<style type="text/css">
	.st0{opacity:0.5;fill:#F2994A;stroke:#000000;stroke-width:0.75;}
	.st1{fill:#FFFFFF;stroke:#000000;stroke-width:0.75;stroke-miterlimit:10;}
	.st2{fill:none;stroke:#000000;stroke-width:0.75;}
</style>
<path class="st0" d="M1,0.4h18c0.3,0,0.6,0.3,0.6,0.6v18c0,0.3-0.3,0.6-0.6,0.6H1c-0.3,0-0.6-0.3-0.6-0.6V1C0.4,0.7,0.7,0.4,1,0.4z"
	/>
<path class="st1" d="M10.7,8.7c1-1.3,2.3-1.6,3.8-1.3c1.2,0.2,2,0.9,2.3,2.1c0.2,0.6,0.3,1.2,0.3,1.9c0,1.7,0,3.4,0,5.1
	c0,0.5-0.1,0.6-0.6,0.6c-0.6,0-1.2,0-1.8,0c-0.5,0-0.5-0.2-0.5-0.6c0-1.4,0-2.9,0-4.3c0-0.4,0-0.7-0.1-1c-0.2-0.8-0.6-1.2-1.3-1.3
	c-1,0-1.5,0.3-1.7,1.2c-0.1,0.4-0.1,0.8-0.1,1.2c0,1.4,0,2.8,0,4.2c0,0.4-0.1,0.6-0.5,0.5c-0.7,0-1.3,0-2,0c-0.4,0-0.5-0.1-0.5-0.5
	c0-2.9,0-5.7,0-8.6c0-0.4,0.1-0.5,0.5-0.5c0.4,0,0.7,0,1.1,0C10.5,7.5,10.5,7.5,10.7,8.7z"/>
<path class="st1" d="M3,12.2c0-1.4,0-2.8,0-4.1c0-0.5,0.1-0.6,0.6-0.6c0.6,0,1.3,0,1.9,0c0.4,0,0.5,0.1,0.5,0.5c0,2.9,0,5.7,0,8.6
	c0,0.4-0.1,0.5-0.5,0.5c-0.7,0-1.3,0-2,0c-0.4,0-0.5-0.1-0.5-0.5C3,15.1,3,13.7,3,12.2z"/>
<path class="st1" d="M4.4,6.2c-0.9,0-1.7-0.7-1.7-1.7c0-0.9,0.8-1.7,1.7-1.7c1,0,1.7,0.8,1.7,1.7C6.1,5.4,5.4,6.2,4.4,6.2z"/>
<path class="st2" d="M1,0.4h18c0.3,0,0.6,0.3,0.6,0.6v18c0,0.3-0.3,0.6-0.6,0.6H1c-0.3,0-0.6-0.3-0.6-0.6V1C0.4,0.7,0.7,0.4,1,0.4z"
	/>
</svg>
