<svg width="20" height="20" viewBox="0 0 20 20" fill="none" xmlns="http://www.w3.org/2000/svg">
<rect x="0.375" y="0.375" width="19.25" height="19.25" rx="0.625" stroke="black" stroke-width="0.75"/>
<path d="M10.6892 8.69442C11.7159 7.3959 12.9817 7.07128 14.4585 7.35356C15.6681 7.57939 16.4135 8.28511 16.7511 9.44248C16.9198 10.0494 17.0183 10.6845 17.0183 11.3056C17.0323 13.0134 17.0042 14.7212 17.0324 16.4291C17.0324 16.8949 16.8917 17.0501 16.4276 17.036C15.8228 17.0078 15.2039 17.0078 14.5992 17.036C14.1491 17.0642 14.0506 16.8666 14.0506 16.4573C14.0647 15.0318 14.0647 13.6062 14.0506 12.1807C14.0506 11.8278 14.0225 11.4749 13.9662 11.1362C13.8115 10.2893 13.4037 9.90826 12.6301 9.88003C11.6596 9.83768 11.083 10.2047 10.8861 11.0374C10.7876 11.4467 10.7454 11.8701 10.7454 12.2795C10.7314 13.6768 10.7314 15.0882 10.7454 16.4855C10.7454 16.8807 10.6329 17.036 10.225 17.0219C9.56399 16.9937 8.91702 16.9937 8.25598 17.0219C7.89029 17.036 7.77778 16.8807 7.77778 16.5279C7.79184 13.6768 7.79184 10.8257 7.77778 7.97459C7.77778 7.60762 7.91842 7.48059 8.27004 7.4947C8.62166 7.50882 9.01547 7.4947 9.39522 7.4947C10.5485 7.50882 10.5485 7.50882 10.6892 8.69442Z" stroke="black" stroke-width="0.75" stroke-miterlimit="10"/>
<path d="M2.98172 12.2371C2.98172 10.8539 2.99578 9.48482 2.96765 8.10162C2.95359 7.64996 3.08017 7.46648 3.55837 7.4947C4.19128 7.53705 4.82419 7.52293 5.4571 7.4947C5.82279 7.48059 5.94937 7.62173 5.94937 7.98871C5.9353 10.8398 5.9353 13.6909 5.94937 16.542C5.94937 16.8948 5.83685 17.0501 5.47117 17.036C4.81013 17.0219 4.16315 17.0078 3.50211 17.036C3.09423 17.0501 2.98172 16.8948 2.98172 16.4996C2.98172 15.0741 2.98172 13.6627 2.98172 12.2371Z" stroke="black" stroke-width="0.75" stroke-miterlimit="10"/>
<path d="M4.44445 6.15385C3.51617 6.15385 2.75668 5.40579 2.74261 4.47424C2.74261 3.52858 3.51617 2.7523 4.47257 2.76641C5.42897 2.78052 6.18847 3.5427 6.1744 4.50247C6.13221 5.43402 5.37272 6.16796 4.44445 6.15385Z" stroke="black" stroke-width="0.75" stroke-miterlimit="10"/>
</svg>
