<svg xmlns="http://www.w3.org/2000/svg" viewBox="0 0 200.06 200.06"><defs><style>.cls-1{fill:none;}.cls-2{fill:#181a1b;}.cls-3{fill:#c3e3f2;}.cls-4{fill:#c2e2f2;}.cls-5{fill:#c2e2f1;}.cls-6{fill:#fafafa;}.cls-7{fill:#151819;}.cls-8{fill:#baddee;}.cls-9{fill:#b9dbec;}.cls-10{fill:#f9f9f9;}.cls-11{fill:#f5f5f5;}</style></defs><title>tab-2</title><g id="Layer_2" data-name="Layer 2"><g id="Layer_1-2" data-name="Layer 1"><rect class="cls-1" width="200.06" height="200.06"/><path class="cls-2" d="M79.58,76c-2-.31-4.33,1.6-5.85.34-1.36-1.11-1.62-3.52-2.46-5.31a19.75,19.75,0,0,0-1.6-2.48c-3.44-5.37-8.28-7.76-14.63-7.17-7.24.67-11.8,5-14.46,11.3-4.8,11.43-4.39,23.14-.95,34.85A19.62,19.62,0,0,0,46.78,118l0,0a.5.5,0,0,0,.58.43c9.13,6.06,22.71,1.5,25.49-8.56a8.92,8.92,0,0,0,.31-1.7c.24-3.49.23-3.49,3.6-3.49,5,0,9.93,0,14.88,0,1.45,0,1.87.39,1.69,1.83-.35,2.79-.21,5.63-.85,8.4-1.32,4.55-3.12,8.87-6.32,12.47-6.77,7.62-15.66,10.31-25.39,11.06a48.25,48.25,0,0,1-20.87-3h0c-.18-.45-.59-.52-1-.59-11.57-6.58-18.12-16.79-20.42-29.69-2.6-14.6-2.31-29,5-42.45,5.19-9.47,13-15.92,23.77-17.9,11.75-2.15,23.07-1.29,33.17,6A32.84,32.84,0,0,1,90.36,63l.48,1.13,0,0c.72,2.52,1.39,5.06,2.2,7.56.4,1.27.08,1.62-1.22,1.84C87.75,74.31,83.67,75.2,79.58,76Zm2.58-19.69.1.06A18.36,18.36,0,0,0,78.66,53c-6.48-4.76-13.9-6.37-21.73-6.38-16,0-26.95,7.55-32.7,21-5.34,12.52-5.41,25.71-2.56,38.87,1.58,7.32,4.72,14,10.19,19.27a17.93,17.93,0,0,0,6.32,5.11c13.06,6.88,26.31,6.45,39.2-.14A22.16,22.16,0,0,0,89.21,115a19.68,19.68,0,0,0,.93-5.34c.15-1.59-.17-2.17-1.9-2.1-3.46.14-6.94.11-10.42,0-1.45,0-1.92.35-2.12,1.87a14.73,14.73,0,0,1-5.79,10.31c-6,4.43-12.57,5-19.56,3.46-5-1.55-8.5-4.89-11.07-9.36-4.11-7.16-4.94-15-5-23.06s1.26-16,5.63-23.1a19.5,19.5,0,0,1,25.13-7.29c4.56,2.29,7.07,6.32,9.4,10.57.63,1.15,1,2.74,2.81,2.44,3.67-.6,7.31-1.31,11-2,1-.19,1.6-.58,1.23-1.83-1.37-4.64-3.26-9-6.61-12.59Z"/><path class="cls-3" d="M39.87,135.43a48.25,48.25,0,0,0,20.87,3c9.73-.75,18.62-3.44,25.39-11.06,3.2-3.6,5-7.92,6.32-12.47,1.82,0,3.72.34,5.44-.08,2.16-.54,2.13.47,2.14,2,.13,14.57-9.7,24.64-23.21,27.54C69,146,61,146.3,53.09,143.93a33.77,33.77,0,0,1-12.93-7.58C40,136.17,40,135.74,39.87,135.43Z"/><path class="cls-4" d="M46.78,118a19.62,19.62,0,0,1-7.15-10.48c-3.44-11.71-3.85-23.42.95-34.85C43.24,66.37,47.8,62.08,55,61.41c6.35-.59,11.19,1.8,14.63,7.17-3.12,0-6.27-.55-9.35.33C52,71.3,47.9,77.7,45.91,85.47a57,57,0,0,0,.69,31.1A9,9,0,0,1,46.78,118Z"/><path class="cls-4" d="M79.58,76c4.09-.83,8.17-1.72,12.27-2.43,1.3-.22,1.62-.57,1.22-1.84-.81-2.5-1.48-5-2.2-7.56,1.71-.34,2.28,1.13,3,2.11A35,35,0,0,1,99.7,78.83c.36,1.44,0,1.94-1.39,2.17q-6.56,1.11-13.08,2.4a2.27,2.27,0,0,1-3-1.76A35.06,35.06,0,0,0,79.58,76Z"/><path class="cls-4" d="M90.84,64.15,90.36,63C91,63.2,91.07,63.6,90.84,64.15Z"/><path class="cls-3" d="M38.89,134.85c.41.07.82.14,1,.59A.84.84,0,0,1,38.89,134.85Z"/><path class="cls-4" d="M47.33,118.44a.5.5,0,0,1-.58-.43Z"/><path class="cls-5" d="M82.87,57c3.35,3.59,5.24,8,6.61,12.59.37,1.25-.18,1.64-1.23,1.83-3.65.66-7.29,1.37-11,2-1.78.3-2.18-1.29-2.81-2.44-2.33-4.25-4.84-8.28-9.4-10.57A19.5,19.5,0,0,0,40,67.64c-4.37,7.12-5.65,14.93-5.63,23.1s.85,15.9,5,23.06c2.57,4.47,6.06,7.81,11.07,9.36,1.54,3.63,4.54,5.56,8,6.8,3.83,1.37,7.74,1.14,11.71.54a15.7,15.7,0,0,0,12.29-10.6c.47-1.62-.12-3.94,1.44-4.71s3.4-.2,5.14-.23h.24a22.16,22.16,0,0,1-11.83,15.81c-12.89,6.59-26.14,7-39.2.14a17.93,17.93,0,0,1-6.32-5.11,4.26,4.26,0,0,0-.58-2.63,31,31,0,0,1-2.34-6.81A74.41,74.41,0,0,1,27.37,92c.74-7,2.28-13.73,5.71-19.9C41.81,56.37,57.32,51.5,73.44,54.3c3,.53,5.71,2.14,8.82,2.1l-.1-.06A.81.81,0,0,0,82.87,57Z"/><path class="cls-6" d="M82.87,57a.81.81,0,0,1-.71-.63Z"/><g id="JSIhfR.tif"><path class="cls-7" d="M137,77.33c8,3.27,16.12,6.43,24.1,9.82,7.35,3.12,13.44,7.75,16.74,15.39,0,.29,0,.55.29.67h0c.93,4.53,1.49,9.08.42,13.65C176,127.39,169,133.53,159,136.31a53,53,0,0,1-32.72-1h0c-.22-.54-.72-.52-1.17-.58a34.25,34.25,0,0,1-11.33-9.2c-4.07-5.34-5.42-11.58-5.91-18.11-.09-1.24.46-1.37,1.47-1.36,5.16,0,10.33.06,15.5,0,1.31,0,1.41.56,1.56,1.63.43,3,.69,6.11,3.29,8.26a6.75,6.75,0,0,0,3.74,2.53c6.94,3.08,13.91,3.23,20.74-.21,4.2-2.12,5.4-5.77,3.65-10-.8-3.37-3.72-4.48-6.36-5.6-8.85-3.77-17.79-7.33-26.69-11l0,0c-.09-.36-.35-.43-.67-.4-2.51-1.73-5.11-3.29-7.5-5.2-9-7.18-9.78-24.22-.78-32.93,5.7-5.52,12.6-8.18,20.25-8.92,6.84-.66,13.69-.58,20.37,1.5a27.29,27.29,0,0,1,17.37,15.31,48.46,48.46,0,0,1,2.31,9.56c.21,1.51,0,2.29-1.89,2.21-3.28-.15-6.56,0-9.84,0-.75,0-1.51-.1-2.26-.1-4.14,0-4.14,0-5.47-4a9.89,9.89,0,0,0-3.38-4.66c-4.69-3.8-15.91-3.83-20.68-.09-4.07,3.19-3.87,8.55.48,11.32A40.42,40.42,0,0,0,137,77.33Zm34.13,20.09,0,0a24.09,24.09,0,0,0-7.06-5.64c-8.49-4.53-17.68-7.36-26.54-11-1.6-.76-3.23-1.46-4.79-2.29-3.61-2-5.94-4.82-5.88-9.11s2.39-7,6-8.78c4.82-2.47,9.91-2.57,15.09-1.71,5.82,1,9.92,4.09,11.84,9.81.25.76.49,1.13,1.34,1.12,4,0,7.93,0,12,0-.76-5.07-2.19-9.62-5.5-13.37l-.51-.62.08.06c-4.93-5.83-11.51-8.11-18.8-8.8-9.55-.92-18.72,0-27.12,5.31-12,7.51-11.34,26.76-1.06,32.78a30,30,0,0,0,8.71,5c7.85,3.29,15.78,6.42,23.65,9.67,4.69,1.93,8.27,4.92,9,10.37.15,3.38-.6,6.39-3.28,8.71a18.48,18.48,0,0,1-6.69,3.52c-5.52,1.77-11,1.06-16.54-.1-3.71-1.33-7.06-3.17-9.33-6.57a15.7,15.7,0,0,1-1.81-5.5c-.12-1.46-.76-1.58-1.91-1.56-3,0-6.09.13-9.13,0-1.72-.08-2,.62-1.8,2.07.9,6.52,3.39,12.19,8.56,16.46l-.06-.08.61.56a24.19,24.19,0,0,0,9.53,5.55c7.74,2.53,15.65,2.64,23.57,1.38,6.33-1,12.24-3.19,16.94-7.92,7.48-7.53,8.22-21.23,1.48-28.81Z"/><path class="cls-8" d="M126.32,135.32a53,53,0,0,0,32.72,1c10-2.78,17-8.92,19.49-19.45,1.07-4.57.51-9.12-.42-13.65,3.51,1.3,5.07,4.41,6.23,7.51,5.14,13.69-1.2,27.44-15.08,31.91-11.62,3.74-23.45,4.15-34.94-.79C131.15,140.48,127.78,139,126.32,135.32Z"/><path class="cls-9" d="M137,77.33a40.42,40.42,0,0,1-3.83-1.94c-4.35-2.77-4.55-8.13-.48-11.32,4.77-3.74,16-3.71,20.68.09a9.89,9.89,0,0,1,3.38,4.66,22.11,22.11,0,0,0-13.62,1C139.85,71.17,137.07,73.21,137,77.33Z"/><path class="cls-8" d="M164.47,73c3.28,0,6.56-.2,9.84,0,1.85.08,2.1-.7,1.89-2.21a48.46,48.46,0,0,0-2.31-9.56c3,1.5,4.47,4.31,6,7a30.51,30.51,0,0,1,2.88,8.67c.37,1.72.1,2.91-2.24,2.79-3.63-.19-7.28-.08-10.92,0-1.42,0-2.39-.17-2.67-1.92S165.3,74.52,164.47,73Z"/><path class="cls-9" d="M124.82,91.75c8.9,3.63,17.84,7.19,26.69,11,2.64,1.12,5.56,2.23,6.36,5.6-6.36-1.83-12.36-4.61-18.48-7.08a46.42,46.42,0,0,1-13.6-7.84C125.25,92.92,124.71,92.55,124.82,91.75Z"/><path class="cls-9" d="M133.48,118.48a6.75,6.75,0,0,1-3.74-2.53C131.54,116,133.88,115.16,133.48,118.48Z"/><path class="cls-8" d="M125.16,134.75c.45.06,1,0,1.17.58A1,1,0,0,1,125.16,134.75Z"/><path class="cls-9" d="M124.18,91.37c.32,0,.58,0,.67.4Z"/><path class="cls-8" d="M178.12,103.21c-.33-.12-.33-.38-.29-.67C177.93,102.76,178,103,178.12,103.21Z"/><path class="cls-8" d="M125.68,115.86c2.27,3.4,5.62,5.24,9.33,6.57a6.3,6.3,0,0,0,1.55,2.57c5,6.13,20.23,7.69,28,2.35a8.87,8.87,0,0,0,3.76-9.48c-.76-4-3.53-6-6.8-7.57-.72-5.45-4.3-8.44-9-10.37-7.87-3.25-15.8-6.38-23.65-9.67a30,30,0,0,1-8.71-5,46.85,46.85,0,0,1-.54-8.37c-.21-7.32,3.22-12.72,8.89-16.84,8.82-6.42,18.95-6.55,29.21-5.86,3.2.22,6.17,1.74,9.42,1.78l-.07-.06c.16.21.33.41.5.62,3.31,3.75,4.74,8.3,5.5,13.37-4,0-8,0-12,0-.85,0-1.09-.36-1.34-1.12-1.92-5.72-6-8.84-11.84-9.81-5.18-.86-10.27-.76-15.09,1.71-3.57,1.83-5.9,4.6-6,8.78s2.27,7.16,5.88,9.11c1.56.83,3.19,1.53,4.79,2.29.16,3,2.55,4.06,4.68,5.17,5.8,3,12,5,18.07,7.37,3.58,1.43,7,3.31,10.85,4.08l0,0,.54.56c6.74,7.58,6,21.28-1.48,28.81-4.7,4.73-10.61,6.91-16.94,7.92-7.92,1.26-15.83,1.15-23.57-1.38a24.19,24.19,0,0,1-9.53-5.55l-.61-.56.06.08c-.14-3.11-1.51-6-1.52-9.15,0-1.81.61-2.37,2.33-2.27S123.92,115.88,125.68,115.86Z"/><path class="cls-10" d="M167.58,56.49c-.17-.21-.34-.41-.5-.62C167.24,56.08,167.41,56.28,167.58,56.49Z"/><path class="cls-11" d="M171.66,98l-.54-.56Z"/><path class="cls-11" d="M119.53,127.22l.61.56Z"/></g></g></g></svg>