<svg xmlns="http://www.w3.org/2000/svg" viewBox="0 0 108.43 108.43"><defs><style>.cls-1{fill:#bce6f7;}.cls-2,.cls-3{fill:none;}.cls-2{stroke:#231f20;stroke-miterlimit:10;stroke-width:3px;}</style></defs><title>tab-clear</title><g id="Layer_2" data-name="Layer 2"><g id="Layer_1-2" data-name="Layer 1"><path class="cls-1" d="M94.26,38.34C90.13,19.79,77.38,12.87,60.37,11.71c-18.42-1.27-30,11.2-35.31,21.57-4.57,8.86-4.38,17.54-4.2,26.19.16,7.67.71,14.8,5.5,24.22a36.49,36.49,0,0,0,17.43,17.13c5.64,2.68,31.67,6.2,43.27-6.88,6.72-7.58,7.66-14.33,7.19-21.22H77.12a16,16,0,0,1-3.56,10.67C68.8,89,61.39,88.67,58.69,88.57c-1.83-.08-8.17.13-12.61-4.53-5.29-5.55-5.88-9.23-7.43-17.79-.9-5-.84-11.58,0-18.75a24.82,24.82,0,0,1,6.15-13.9c1.65-1.87,5.32-6,11.63-7.11a18.13,18.13,0,0,1,12.29,2.26c6.74,4.06,8.29,11.71,8.51,12.86C82.82,40.42,88.66,39.53,94.26,38.34Z"/><path class="cls-2" d="M87.55,31.8C83.42,13.24,70.67,6.33,53.67,5.16c-18.43-1.26-30,11.2-35.31,21.57C13.78,35.6,14,44.28,14.15,52.92c.17,7.67.71,14.81,5.5,24.22A36.59,36.59,0,0,0,37.08,94.28c5.64,2.68,31.67,6.19,43.27-6.89,6.72-7.58,7.66-14.33,7.2-21.21H70.41a16,16,0,0,1-3.56,10.67C62.09,82.42,54.68,82.13,52,82c-1.83-.07-8.16.14-12.61-4.53C34.08,72,33.49,68.26,31.94,59.7c-.9-5-.84-11.58,0-18.74a24.84,24.84,0,0,1,6.14-13.9c1.65-1.88,5.32-6,11.64-7.12A18.2,18.2,0,0,1,62,22.21c6.74,4.06,8.3,11.7,8.51,12.85C76.12,33.87,82,33,87.55,31.8Z"/><rect class="cls-3" width="108.43" height="108.43"/></g></g></svg>