<svg xmlns="http://www.w3.org/2000/svg" viewBox="0 0 139.72 139.72"><defs><style>.cls-1{fill:none;}.cls-2{fill:#171a1b;}.cls-3{fill:#bbe3f4;}.cls-4{fill:#bbe2f3;}.cls-5{fill:#fafafa;}</style></defs><title>tab</title><g id="Layer_2" data-name="Layer 2"><g id="Layer_1-2" data-name="Layer 1"><rect class="cls-1" width="139.72" height="139.72"/><path class="cls-2" d="M92.31,51.84c-2-.31-4.33,1.6-5.86.34-1.35-1.11-1.61-3.52-2.45-5.31a21,21,0,0,0-1.6-2.48C79,39,74.12,36.63,67.76,37.22c-7.24.67-11.79,5-14.45,11.3-4.8,11.43-4.4,23.14-1,34.85A19.61,19.61,0,0,0,59.5,93.85l0,0a.5.5,0,0,0,.58.43c9.14,6.06,22.72,1.5,25.5-8.56a8.91,8.91,0,0,0,.3-1.7c.25-3.49.24-3.49,3.61-3.49,5,0,9.92,0,14.88,0,1.44,0,1.87.39,1.68,1.83-.34,2.79-.2,5.63-.84,8.4-1.33,4.55-3.12,8.87-6.32,12.47-6.77,7.62-15.67,10.31-25.39,11.06a48.23,48.23,0,0,1-20.87-3h0c-.19-.45-.6-.52-1-.59C40.05,104.08,33.5,93.87,31.2,81c-2.6-14.6-2.31-29,5-42.45,5.18-9.47,13-15.92,23.77-17.9,11.74-2.15,23.06-1.29,33.17,6a32.84,32.84,0,0,1,9.92,12.24l.48,1.13,0,0c.73,2.52,1.4,5.06,2.2,7.56.41,1.27.09,1.62-1.21,1.84C100.47,50.12,96.4,51,92.31,51.84Zm2.58-19.69.09.06a18.36,18.36,0,0,0-3.6-3.39c-6.48-4.76-13.89-6.37-21.72-6.38-16,0-27,7.55-32.7,21C31.62,56,31.55,69.18,34.39,82.34c1.59,7.32,4.72,14,10.2,19.27a17.89,17.89,0,0,0,6.31,5.11c13.06,6.88,26.31,6.45,39.2-.14a22.14,22.14,0,0,0,11.84-15.81,19.68,19.68,0,0,0,.93-5.34c.15-1.59-.18-2.17-1.9-2.1-3.47.14-7,.11-10.42,0-1.46,0-1.92.35-2.13,1.87a14.7,14.7,0,0,1-5.79,10.31c-5.95,4.43-12.57,5-19.56,3.46-5-1.55-8.49-4.89-11.06-9.36-4.12-7.16-4.95-15-5-23.06s1.26-16,5.64-23.1a19.49,19.49,0,0,1,25.13-7.29c4.55,2.29,7.07,6.32,9.4,10.57.63,1.15,1,2.74,2.81,2.44,3.66-.6,7.3-1.31,11-2,1-.19,1.6-.58,1.24-1.83-1.38-4.64-3.26-9-6.62-12.59Z"/><path class="cls-3" d="M52.6,111.24a48.23,48.23,0,0,0,20.87,3c9.72-.75,18.62-3.44,25.39-11.06,3.2-3.6,5-7.92,6.32-12.47,1.82,0,3.72.34,5.43-.08,2.17-.54,2.13.47,2.15,2,.13,14.57-9.71,24.64-23.21,27.54-7.87,1.69-15.86,2-23.74-.42a33.85,33.85,0,0,1-12.93-7.58C52.68,112,52.69,111.55,52.6,111.24Z"/><path class="cls-3" d="M59.5,93.85a19.61,19.61,0,0,1-7.14-10.48c-3.45-11.71-3.85-23.42,1-34.85,2.66-6.34,7.21-10.63,14.45-11.3C74.12,36.63,79,39,82.4,44.39c-3.13,0-6.28-.55-9.36.33-8.35,2.39-12.41,8.79-14.41,16.56a57,57,0,0,0,.7,31.1A8,8,0,0,1,59.5,93.85Z"/><path class="cls-3" d="M92.31,51.84c4.09-.83,8.16-1.72,12.27-2.43,1.3-.22,1.62-.57,1.21-1.84-.8-2.5-1.47-5-2.2-7.56,1.72-.34,2.29,1.13,3,2.11a35,35,0,0,1,5.83,12.52c.36,1.44,0,1.94-1.4,2.17q-6.56,1.11-13.07,2.4a2.28,2.28,0,0,1-3-1.76A35,35,0,0,0,92.31,51.84Z"/><path class="cls-3" d="M103.57,40l-.48-1.13C103.69,39,103.8,39.41,103.57,40Z"/><path class="cls-3" d="M51.61,110.66c.41.07.82.14,1,.59A.85.85,0,0,1,51.61,110.66Z"/><path class="cls-3" d="M60.05,94.25a.5.5,0,0,1-.58-.43Z"/><path class="cls-4" d="M95.59,32.78c3.36,3.59,5.24,7.95,6.62,12.59.36,1.25-.19,1.64-1.24,1.83-3.65.66-7.29,1.37-11,2-1.78.3-2.18-1.29-2.81-2.44-2.33-4.25-4.85-8.28-9.4-10.57a19.49,19.49,0,0,0-25.13,7.29C48.3,50.57,47,58.38,47,66.55s.85,15.9,5,23.06c2.57,4.47,6.06,7.81,11.06,9.36,1.54,3.63,4.54,5.56,8.05,6.8,3.83,1.37,7.73,1.14,11.7.54a15.67,15.67,0,0,0,12.29-10.6c.47-1.62-.11-3.94,1.45-4.71,1.41-.7,3.4-.2,5.13-.23h.25A22.14,22.14,0,0,1,90.1,106.58c-12.89,6.59-26.14,7-39.2.14a17.89,17.89,0,0,1-6.31-5.11A4.2,4.2,0,0,0,44,99a31.51,31.51,0,0,1-2.34-6.81A74.41,74.41,0,0,1,40.1,67.76c.73-7,2.28-13.73,5.71-19.9,8.73-15.68,24.24-20.55,40.35-17.75,3,.53,5.72,2.14,8.82,2.1l-.09-.06A.8.8,0,0,0,95.59,32.78Z"/><path class="cls-5" d="M95.59,32.78a.8.8,0,0,1-.7-.63Z"/></g></g></svg>